{
  "accessors": [
    {
      "bufferView": 2,
      "componentType": 5126,
      "count": 216,
      "max": [
        0.07500000298023224,
        4.361208915710449,
        2.0196430683135986
      ],
      "min": [
        -0.07500000298023224,
        -0.07500000298023224,
        0.0
      ],
      "type": "VEC3"
    },
    {
      "bufferView": 2,
      "byteOffset": 2592,
      "componentType": 5126,
      "count": 216,
      "max": [
        1.0,
        1.0,
        1.0
      ],
      "min": [
        -1.0,
        -1.0,
        -1.0
      ],
      "type": "VEC3"
    },
    {
      "bufferView": 3,
      "componentType": 5126,
      "count": 216,
      "max": [
        1.0,
        1.0,
        1.0,
        1.0
      ],
      "min": [
        -1.0,
        -1.0,
        -1.0,
        1.0
      ],
      "type": "VEC4"
    },
    {
      "bufferView": 1,
      "componentType": 5126,
      "count": 216,
      "max": [
        0.9415140151977539,
        0.9980080127716064
      ],
      "min": [
        0.0018789999885484576,
        0.0019920000340789557
      ],
      "type": "VEC2"
    },
    {
      "bufferView": 0,
      "componentType": 5125,
      "count": 324,
      "type": "SCALAR"
    }
  ],
  "asset": {
    "extras": {
      "author": "Artyom (https://sketchfab.com/Art62)",
      "license": "CC-BY-4.0 (http://creativecommons.org/licenses/by/4.0/)",
      "source": "https://sketchfab.com/3d-models/fence-6224ede9a3bb4dfd8ed56ff1726abfbe",
      "title": "Fence"
    },
    "generator": "Sketchfab-12.67.0",
    "version": "2.0"
  },
  "bufferViews": [
    {
      "buffer": 0,
      "byteLength": 1296,
      "name": "floatBufferViews",
      "target": 34963
    },
    {
      "buffer": 0,
      "byteLength": 1728,
      "byteOffset": 1296,
      "byteStride": 8,
      "name": "floatBufferViews",
      "target": 34962
    },
    {
      "buffer": 0,
      "byteLength": 5184,
      "byteOffset": 3024,
      "byteStride": 12,
      "name": "floatBufferViews",
      "target": 34962
    },
    {
      "buffer": 0,
      "byteLength": 3456,
      "byteOffset": 8208,
      "byteStride": 16,
      "name": "floatBufferViews",
      "target": 34962
    }
  ],
  "buffers": [
    {
      "byteLength": 11664,
      "uri": "scene.bin"
    }
  ],
  "images": [
    {
      "uri": "textures/initialShadingGroup_baseColor.png"
    },
    {
      "uri": "textures/initialShadingGroup_normal.png"
    }
  ],
  "materials": [
    {
      "doubleSided": true,
      "name": "initialShadingGroup",
      "normalTexture": {
        "index": 1
      },
      "pbrMetallicRoughness": {
        "baseColorTexture": {
          "index": 0
        },
        "metallicFactor": 0.0,
        "roughnessFactor": 0.6
      }
    }
  ],
  "meshes": [
    {
      "name": "Object_0",
      "primitives": [
        {
          "attributes": {
            "NORMAL": 1,
            "POSITION": 0,
            "TANGENT": 2,
            "TEXCOORD_0": 3
          },
          "indices": 4,
          "material": 0,
          "mode": 4
        }
      ]
    }
  ],
  "nodes": [
    {
      "children": [
        1
      ],
      "matrix": [
        0.3172013759613037,
        0.0,
        0.0,
        0.0,
        0.0,
        7.0432854207004e-17,
        -0.3172013759613037,
        0.0,
        0.0,
        0.3172013759613037,
        7.0432854207004e-17,
        0.0,
        0.0,
        0.0,
        0.0,
        1.0
      ],
      "name": "Sketchfab_model"
    },
    {
      "children": [
        2
      ],
      "name": "490bff519e7d464cae99071e28b6f0ac.obj.cleaner.materialmerger.gles"
    },
    {
      "mesh": 0,
      "name": "Object_2"
    }
  ],
  "samplers": [
    {
      "magFilter": 9729,
      "minFilter": 9987,
      "wrapS": 10497,
      "wrapT": 10497
    }
  ],
  "scene": 0,
  "scenes": [
    {
      "name": "Sketchfab_Scene",
      "nodes": [
        0
      ]
    }
  ],
  "textures": [
    {
      "sampler": 0,
      "source": 0
    },
    {
      "sampler": 0,
      "source": 1
    }
  ]
}
